<svg xmlns="http://www.w3.org/2000/svg" xmlns:xlink="http://www.w3.org/1999/xlink" width="200"
  height="200" viewBox="0 0 100 100" preserveAspectRatio="xMidYMid">
  <defs>
    <path id="electronPath" d="M50 15A15 35 0 0 1 50 85A15 35 0 0 1 50 15" fill="none"></path>
    <path id="electron" d="M0 0A15 35 0 0 1 0 70A15 35 0 0 1 0 0" fill="none"></path>
  </defs>
  <g>
    <animateTransform attributeName="transform" begin="0s" dur="5s" type="rotate" from="0 50 50"
      to="360 50 50" repeatCount="indefinite"></animateTransform>
    <mask id="layer-0-bottom-particle">
      <rect x="0" y="0" width="100" height="100" fill="white"></rect>
      <circle cx="54" cy="50" r="2.65"></circle>
    </mask>
    <circle cx="54" cy="50" r="2.5" fill="#99999922" stroke="#99999966" stroke-width="0.3"></circle>
    <circle cx="48" cy="53.46410161513776" r="2.5" fill="#99999922" stroke="#99999966"
      stroke-width="0.3"></circle>
    <circle cx="48" cy="46.53589838486225" r="2.5" fill="#99999922" stroke="#99999966"
      stroke-width="0.3" mask="url('#layer-0-bottom-particle')"></circle>
  </g>
  <g transform="rotate(0 50 50)">
    <use href="#electronPath" stroke="#99999944" stroke-width="0.5"></use>
  </g>
  <g transform="rotate(60 50 50)">
    <use href="#electronPath" stroke="#99999944" stroke-width="0.5"></use>
  </g>
  <g transform="rotate(120 50 50)">
    <use href="#electronPath" stroke="#99999944" stroke-width="0.5"></use>
  </g>
  <g data-testid="electron" transform="rotate(0 50 50)">
    <circle cx="50" cy="15" r="1.5" fill="#FF6B6B">
      <animateMotion dur="2.073756746994346s" repeatCount="indefinite" begin="-2.8287436489760984s">
        <mpath href="#electron"></mpath>
      </animateMotion>
    </circle>
  </g>
  <g data-testid="electron" transform="rotate(0 50 50)">
    <circle cx="50" cy="15" r="1.5" fill="#FFE66D">
      <animateMotion dur="2.073756746994346s" repeatCount="indefinite" begin="-1.7918652754789255s">
        <mpath href="#electron"></mpath>
      </animateMotion>
    </circle>
  </g>
  <g data-testid="electron" transform="rotate(60 50 50)">
    <circle cx="50" cy="15" r="1.5" fill="#05386B">
      <animateMotion dur="2.1358511828660323s" repeatCount="indefinite" begin="-3.9364834722424837s">
        <mpath href="#electron"></mpath>
      </animateMotion>
    </circle>
  </g>
  <g data-testid="electron" transform="rotate(60 50 50)">
    <circle cx="50" cy="15" r="1.5" fill="#FF6B6B">
      <animateMotion dur="2.1358511828660323s" repeatCount="indefinite" begin="-2.8685578808094676s">
        <mpath href="#electron"></mpath>
      </animateMotion>
    </circle>
  </g>
  <g data-testid="electron" transform="rotate(120 50 50)">
    <circle cx="50" cy="15" r="1.5" fill="#FFE66D">
      <animateMotion dur="2.0928400163882594s" repeatCount="indefinite" begin="-2.9620728117453883s">
        <mpath href="#electron"></mpath>
      </animateMotion>
    </circle>
  </g>
  <g data-testid="electron" transform="rotate(120 50 50)">
    <circle cx="50" cy="15" r="1.5" fill="#05386B">
      <animateMotion dur="2.0928400163882594s" repeatCount="indefinite" begin="-1.9156528035512586s">
        <mpath href="#electron"></mpath>
      </animateMotion>
    </circle>
  </g>
</svg>
